<svg width="250" height="50" viewBox="0 0 250 50" fill="none" xmlns="http://www.w3.org/2000/svg">
<path d="M98.5259 36.5282H94.8927V34.6588H104.038V36.5282H100.405V45.7507H98.4006V36.5282H98.5259ZM113.058 45.7507H106.419V34.6588H112.808V36.5282H108.298V39.27H112.307V41.1395H108.298V44.0059H112.933V45.7507H113.058ZM122.705 34.6588H124.96L121.202 40.0178L125.086 45.6261H122.83L119.949 41.5134L117.067 45.6261H114.812L118.696 40.0178L114.938 34.6588H117.193L119.949 38.6469L122.705 34.6588ZM136.486 45.7507H134.482V41.0148H129.47V45.7507H127.466V34.6588H129.47V39.1454H134.607V34.6588H136.486V45.7507ZM139.368 40.2671C139.368 38.6469 139.869 37.276 140.996 36.1543C142.124 35.0326 143.502 34.5341 145.131 34.5341C146.759 34.5341 148.137 35.0326 149.265 36.1543C150.392 37.276 150.893 38.6469 150.893 40.2671C150.893 41.8872 150.392 43.2582 149.265 44.3798C148.137 45.5015 146.759 46 145.131 46C143.502 46 142.124 45.5015 140.996 44.3798C139.869 43.2582 139.368 41.8872 139.368 40.2671ZM141.372 40.2671C141.372 41.3887 141.748 42.2611 142.374 43.0089C143.001 43.7567 144.003 44.1306 145.005 44.1306C146.133 44.1306 147.01 43.7567 147.761 43.0089C148.388 42.2611 148.764 41.3887 148.764 40.2671C148.764 39.1454 148.388 38.1484 147.636 37.5252C146.884 36.7774 146.007 36.4036 145.005 36.4036C143.878 36.4036 143.001 36.7774 142.374 37.5252C141.748 38.1484 141.372 39.1454 141.372 40.2671ZM161.918 45.7507H160.039V36.5282H156.782L156.531 38.6469C156.406 39.8932 156.281 41.0148 156.03 41.8872C155.779 42.7596 155.654 43.5074 155.404 44.0059C155.153 44.5045 154.902 45.003 154.527 45.2522C154.151 45.5015 153.9 45.7507 153.524 45.7507C153.149 45.8754 152.773 45.8754 152.272 45.7507V43.8813C152.522 43.8813 152.647 43.8813 152.898 43.8813C153.023 43.8813 153.274 43.632 153.399 43.3828C153.65 43.1335 153.775 42.7596 153.9 42.2611C154.276 41.1395 154.527 39.3947 154.777 36.9021L154.902 34.6588H161.918V45.7507ZM164.8 40.2671C164.8 38.6469 165.301 37.276 166.428 36.1543C167.556 35.0326 168.934 34.5341 170.563 34.5341C172.191 34.5341 173.569 35.0326 174.697 36.1543C175.824 37.276 176.326 38.6469 176.326 40.2671C176.326 41.8872 175.824 43.2582 174.697 44.3798C173.569 45.5015 172.191 46 170.563 46C168.934 46 167.556 45.5015 166.428 44.3798C165.301 43.2582 164.8 41.8872 164.8 40.2671ZM166.929 40.2671C166.929 41.3887 167.305 42.2611 167.932 43.0089C168.558 43.7567 169.56 44.1306 170.563 44.1306C171.69 44.1306 172.567 43.7567 173.319 43.0089C173.945 42.2611 174.321 41.3887 174.321 40.2671C174.321 39.1454 173.945 38.1484 173.194 37.5252C172.442 36.7774 171.565 36.4036 170.563 36.4036C169.435 36.4036 168.558 36.7774 167.932 37.5252C167.18 38.1484 166.929 39.1454 166.929 40.2671ZM181.212 45.7507H179.207V34.6588H185.471V36.5282H181.212V45.7507ZM190.107 45.7507H188.102V34.6588H190.107V45.7507ZM192.988 32.7893C192.988 32.5401 193.113 32.2908 193.239 32.0415C193.489 31.9169 193.74 31.7923 193.99 31.7923C194.241 31.7923 194.491 31.9169 194.742 32.0415C194.993 32.1662 194.993 32.4154 194.993 32.7893C194.993 33.1632 194.867 33.4125 194.742 33.5371C194.617 33.6617 194.366 33.7863 193.99 33.7863C193.74 33.7863 193.489 33.6617 193.239 33.5371C193.113 33.2878 192.988 33.0386 192.988 32.7893ZM196.245 45.7507H194.241V34.6588H196.245V45.7507ZM195.619 32.7893C195.619 32.5401 195.744 32.2908 195.869 32.0415C196.12 31.9169 196.371 31.7923 196.621 31.7923C196.872 31.7923 197.122 31.9169 197.373 32.0415C197.623 32.2908 197.623 32.4154 197.623 32.7893C197.623 33.1632 197.498 33.4125 197.373 33.5371C197.248 33.7863 196.997 33.7863 196.621 33.7863C196.245 33.7863 195.995 33.6617 195.869 33.5371C195.744 33.2878 195.619 33.0386 195.619 32.7893ZM211.905 43.2582L212.657 44.7537C212.281 45.1276 211.78 45.3769 211.154 45.6261C210.527 45.8754 209.776 46 209.149 46C207.395 46 206.017 45.5015 205.015 44.3798C204.013 43.3828 203.386 42.0119 203.386 40.2671C203.386 38.6469 203.887 37.276 204.89 36.1543C205.892 35.0326 207.27 34.5341 209.024 34.5341C210.402 34.5341 211.53 34.908 212.407 35.6558L211.53 37.1513C210.778 36.6528 209.901 36.4036 209.024 36.4036C208.022 36.4036 207.145 36.7774 206.393 37.4006C205.767 38.1484 205.391 39.0208 205.391 40.2671C205.391 41.3887 205.767 42.3858 206.393 43.1335C207.145 43.8813 208.022 44.2552 209.149 44.2552C210.277 44.1306 211.154 43.8813 211.905 43.2582ZM224.183 45.7507H222.304V41.0148H217.167V45.7507H215.163V34.6588H217.167V39.1454H222.304V34.6588H224.183V45.7507ZM235.083 34.6588H237.087L233.329 43.1335C232.953 44.0059 232.452 44.6291 232.076 45.1276C231.575 45.5015 231.074 45.7507 230.322 45.7507C229.57 45.7507 229.194 45.6261 228.818 45.2522L229.445 43.632C229.695 43.7567 229.946 43.8813 230.322 43.8813C230.823 43.8813 231.199 43.632 231.449 43.1335L231.575 42.7596L226.689 34.6588H228.944L232.577 40.8902L235.083 34.6588Z" fill="#535353"/>
<path d="M92.1478 15.5905L102.922 28.6766H96.0315L87.3871 17.8338V28.6766H82V4.12463H87.3871V14.095L95.6557 4.12463H102.296L92.1478 15.5905ZM202.02 9.23442H209.536V28.6766H214.923V9.23442H222.44V4.12463H201.894V9.23442H202.02ZM118.457 18.8309L126.099 28.6766H119.584L113.195 19.9525H111.191V28.6766H105.803V4.12463H106.43C107.557 4.12463 108.81 4.12463 110.188 4.12463C111.566 4.12463 112.694 4.12463 113.571 4.12463C121.088 4.12463 122.716 8.36202 122.716 11.9763C122.716 13.8457 122.215 15.4659 121.213 16.7122C120.336 17.5846 119.459 18.3323 118.457 18.8309ZM111.817 9.23442C111.566 9.23442 111.441 9.23442 111.191 9.23442V14.8427H113.195C114.323 14.8427 115.325 14.5935 116.077 13.9703C116.703 13.4718 117.079 12.724 117.079 11.8516C117.079 10.6053 116.703 9.10979 113.32 9.10979C113.195 9.10979 113.07 9.10979 112.819 9.10979C112.569 9.23442 112.193 9.23442 111.817 9.23442ZM193.375 4.12463L203.773 28.6766H198.011L195.63 22.6944H186.485L184.104 28.6766H178.592L188.865 4.12463H193.375ZM190.995 11.6024L188.489 17.5846H193.5L190.995 11.6024ZM249 16.4629C249 20.0772 247.747 23.1929 245.367 25.5608C242.987 27.9288 239.854 29.1751 236.221 29.1751C232.588 29.1751 229.456 28.0534 227.076 25.6855C224.695 23.3175 223.443 20.3264 223.443 16.5875C223.443 13.0979 224.695 9.9822 227.076 7.61424C229.456 5.24629 232.588 4 236.221 4C239.854 4 242.987 5.12166 245.367 7.48961C247.747 9.60831 249 12.724 249 16.4629ZM241.483 21.822C242.861 20.3264 243.488 18.5816 243.488 16.3383C243.488 14.095 242.861 12.3501 241.358 10.8546C239.98 9.48368 238.226 8.73591 236.221 8.73591C234.092 8.73591 232.463 9.48368 231.085 10.8546C229.707 12.2255 229.08 14.095 229.08 16.3383C229.08 18.5816 229.707 20.3264 231.085 21.6973C232.463 23.1929 234.092 23.816 236.221 23.816C238.476 23.9407 240.105 23.3175 241.483 21.822ZM175.585 4.12463L169.321 20.3264L162.806 4.12463H157.044L167.191 28.6766H171.2L181.098 4.12463H175.585Z" fill="#535353"/>
<path d="M153.102 6.49432C151.595 4.99773 149.585 4.12472 147.45 4.12472C145.315 4.12472 143.306 4.99773 141.799 6.49432L141.422 6.86847L140.919 6.3696C139.412 4.87301 137.403 4 135.268 4C133.132 4 131.123 4.87301 129.616 6.3696C128.109 7.8662 127.229 9.86165 127.229 11.9818C127.229 14.102 128.109 16.0975 129.616 17.594L140.543 28.4443C140.794 28.6938 141.045 28.8185 141.422 28.8185C141.799 28.8185 142.05 28.6938 142.301 28.4443L153.228 17.594C154.735 16.0975 155.614 14.102 155.614 11.9818C155.614 9.86165 154.735 7.99091 153.102 6.49432Z" fill="#00B5FF"/>
<mask id="mask0_10_3" style="mask-type:alpha" maskUnits="userSpaceOnUse" x="127" y="4" width="29" height="25">
<path d="M153.102 6.49432C151.595 4.99773 149.585 4.12472 147.45 4.12472C145.315 4.12472 143.306 4.99773 141.799 6.49432L141.422 6.86847L140.919 6.3696C139.412 4.87301 137.403 4 135.268 4C133.132 4 131.123 4.87301 129.616 6.3696C128.109 7.8662 127.229 9.86165 127.229 11.9818C127.229 14.102 128.109 16.0975 129.616 17.594L140.543 28.4443C140.794 28.6938 141.045 28.8185 141.422 28.8185C141.799 28.8185 142.05 28.6938 142.301 28.4443L153.228 17.594C154.735 16.0975 155.614 14.102 155.614 11.9818C155.614 9.86165 154.735 7.99091 153.102 6.49432Z" fill="#00B5FF"/>
</mask>
<g mask="url(#mask0_10_3)">
<rect x="126.293" y="14.3227" width="30.0675" height="15.0844" fill="#FFBC00"/>
</g>
<path d="M7.23477 18.4V44.8C7.23477 45.52 6.75246 46 6.02898 46H1.2058C0.482318 46 0 45.52 0 44.8V18.4C0 17.68 0.482318 17.2 1.2058 17.2H6.02898C6.75246 17.2 7.23477 17.8 7.23477 18.4ZM72.7942 17.2H67.971C67.2476 17.2 66.7652 17.68 66.7652 18.4V44.8C66.7652 45.52 67.2476 46 67.971 46H72.7942C73.5177 46 74 45.52 74 44.8V18.4C74 17.8 73.5177 17.2 72.7942 17.2Z" fill="#FFBC57"/>
<path d="M64.3536 25.6V32.8C64.3536 33.52 63.8713 34 63.1479 34H10.8522C10.1287 34 9.64636 33.52 9.64636 32.8V25.6C9.64636 24.88 10.1287 24.4 10.8522 24.4H63.1479C63.8713 24.4 64.3536 24.88 64.3536 25.6ZM10.8522 22H25.0686C25.7921 22 26.2744 21.52 26.2744 20.8V5.2C26.2744 4.48 25.7921 4 25.0686 4H10.8522C10.1287 4 9.64636 4.48 9.64636 5.2V20.8C9.64636 21.52 10.1287 22 10.8522 22ZM29.8918 22H44.1082C44.8317 22 45.314 21.52 45.314 20.8V5.2C45.314 4.48 44.8317 4 44.1082 4H29.8918C29.1683 4 28.686 4.48 28.686 5.2V20.8C28.686 21.52 29.1683 22 29.8918 22ZM63.1479 4H48.9314C48.2079 4 47.7256 4.48 47.7256 5.2V20.8C47.7256 21.52 48.2079 22 48.9314 22H63.1479C63.8713 22 64.3536 21.52 64.3536 20.8V5.2C64.3536 4.48 63.8713 4 63.1479 4ZM63.1479 36.4H10.8522C10.1287 36.4 9.64636 36.88 9.64636 37.6V44.8C9.64636 45.52 10.1287 46 10.8522 46H17.8338C18.5573 46 19.0396 45.52 19.0396 44.8V43.6H54.9604V44.8C54.9604 45.52 55.4427 46 56.1662 46H63.1479C63.8713 46 64.3536 45.52 64.3536 44.8V37.6C64.3536 36.88 63.8713 36.4 63.1479 36.4Z" fill="#FFBC57"/>
</svg>
